<?xml version="1.0" encoding="utf-8"?>
<!-- Uploaded to SVGRepo https://www.svgrepo.com -->
<svg version="1.1" id="_x31_" xmlns="http://www.w3.org/2000/svg" xmlns:xlink="http://www.w3.org/1999/xlink" x="0px" y="0px"
	 viewBox="0 0 128 128" style="enable-background:new 0 0 128 128;" xml:space="preserve">
<g>
	<rect x="54.9" y="63.2" width="61.1" height="9.7"/>
	<polygon points="92.6,34.4 100.2,55.6 87.1,55.6 87.1,59.6 104.1,59.6 104.1,58.3 104.1,55.6 94.3,28.5 100.4,5.3 96,4 84.3,47.4 
		88.8,48.6 	"/>
	<path d="M46.3,31.2c5.9,2,12.4-1,14.4-6.8c2.1-5.9-1-12.5-6.7-14.5c-4.1-1.4-8.2-0.4-11.1,2c-0.3,0.3-0.7,0.5-1.2,0.7
		c-2.9,1.3-6.2,0.1-7.6-2.7c-0.3-0.4-0.5-0.9-0.5-1.4C31.7,18.1,37.1,27.9,46.3,31.2z"/>
	<path d="M66.6,81.8c-1.2-2.7-4-4.3-6.6-4.3H39.6v-8.9h0.3c-4.4,0-8.1-3.7-8.1-8.1V47.5c0-0.9,0.5-1.4,1.4-1.4s1.4,0.5,1.4,1.4v13.1
		c0,2.9,2.5,5.1,5.1,5.1h12.3v-5.3h21.7v-0.1c0-2.7-2.1-4.9-4.9-4.9H45V36.9c0-2.7-1.8-4.7-4.6-5.1c-0.9-0.1-1.7-0.1-2.9,0
		c-10.1,0.7-20.3,9-21.7,19.7C14.7,61,14.5,71.9,15.5,81c0.9,5.6,5.2,10.3,11.3,11c0.6,0.1,1.2,0.1,1.9,0.1h26.5L70,118.9
		c1.7,3.7,6,5.1,9.7,3.5c3.7-1.6,5.3-6,3.6-9.8L66.6,81.8z"/>
	<rect x="15.7" y="95.9" width="37.3" height="9.2"/>
</g>
</svg>
