<?xml version="1.0" encoding="utf-8"?>
<!-- Uploaded to SVGRepo https://www.svgrepo.com -->
<svg version="1.2" baseProfile="tiny" id="Layer_1" xmlns="http://www.w3.org/2000/svg" xmlns:xlink="http://www.w3.org/1999/xlink"
	 x="0px" y="0px" viewBox="-351 153 256 256" xml:space="preserve">
<path d="M-209.3,262.6h-18.3V233c0-14.4,11.6-26,26-26h52.1c14.3,0,26,11.7,26,26v29.6h-18v-24.4c0-1.6-1.1-2.7-2.7-2.7
	c-1.6,0-2.7,1.1-2.7,2.7h0.2v24.5h-57.4v-24.5c0-1.6-1.1-2.7-2.7-2.7c-1.6,0-2.7,1.1-2.7,2.7L-209.3,262.6z M-175.6,202.2
	c11.5,0,20.9-9.4,20.9-20.9s-9.4-20.9-20.9-20.9s-20.9,9.4-20.9,20.9S-187.1,202.2-175.6,202.2z M-343,265.7v28.2h24.1V406H-128V294
	h25v-28.2v-0.1H-343z M-337.5,244.3V191c0-2.6,2.1-4.7,4.7-4.7h80.5c2.6,0,4.7,2.1,4.7,4.7v53.2c0,2.6-2.1,4.7-4.7,4.7h-29.1v7.3
	h10.7v5.2h-3.2h-37.1h-3.2v-5.2h10.5v-7.3h-29.1C-335.4,248.9-337.5,246.9-337.5,244.3z M-292.6,246.1c1.5,0,2.7-1.1,2.7-2.7
	c0-1.5-1.2-2.7-2.7-2.7s-2.7,1.2-2.7,2.7C-295.3,245-294.1,246.1-292.6,246.1z M-331.6,238.7h78.1v-46.6h-78.1V238.7z"/>
</svg>
